<?xml version="1.0" encoding="utf-8"?>
<!-- Svg Vector Icons : http://www.onlinewebfonts.com/icon -->
<!DOCTYPE svg PUBLIC "-//W3C//DTD SVG 1.1//EN" "http://www.w3.org/Graphics/SVG/1.1/DTD/svg11.dtd">
<svg version="1.1" xmlns="http://www.w3.org/2000/svg" xmlns:xlink="http://www.w3.org/1999/xlink" x="0px" y="0px" viewBox="0 0 256 256" enable-background="new 0 0 256 256" xml:space="preserve">
<metadata> Svg Vector Icons : http://www.onlinewebfonts.com/icon </metadata>
<g><g><path stroke-width="10" fill-opacity="0" stroke="#000000"  d="M175.3,194c-14.4,0-28.5-5.7-38.9-16.1c-10.4-10.4-16.1-24.2-16.1-38.8c0-14.7,5.7-28.5,16.1-38.8c10.4-10.4,24.2-16.1,38.8-16.1c14.7,0,28.5,5.7,38.8,16.1c10.4,10.4,16.1,24.2,16.1,38.8c0,14.7-5.7,28.5-16.1,38.8c-1.8,1.8-4.6,1.8-6.4,0c-1.8-1.8-1.8-4.6,0-6.4c8.7-8.7,13.4-20.2,13.4-32.4c0-12.3-4.8-23.8-13.4-32.4c-8.7-8.7-20.2-13.4-32.4-13.4c-12.3,0-23.8,4.8-32.4,13.4c-8.7,8.7-13.4,20.2-13.4,32.4c0,12.3,4.8,23.8,13.4,32.4c11.6,11.6,28.7,16.1,44.5,11.8c2.4-0.7,4.9,0.8,5.6,3.2c0.7,2.4-0.8,4.9-3.2,5.6C185,193.4,180.2,194,175.3,194z"/><path stroke-width="10" fill-opacity="0" stroke="#000000"  d="M241.5,209.8c-1.2,0-2.3-0.4-3.2-1.3l-28.8-28.8c-1.8-1.8-1.8-4.6,0-6.4c1.8-1.8,4.6-1.8,6.4,0l28.8,28.8c1.8,1.8,1.8,4.6,0,6.4C243.8,209.4,242.6,209.8,241.5,209.8z"/><path stroke-width="10" fill-opacity="0" stroke="#000000"  d="M191.8,55.2H14.5c-2.5,0-4.5-2-4.5-4.5c0-2.5,2-4.5,4.5-4.5h177.3c2.5,0,4.5,2,4.5,4.5C196.3,53.2,194.3,55.2,191.8,55.2z"/><path stroke-width="10" fill-opacity="0" stroke="#000000"  d="M93.1,127.5H14.5c-2.5,0-4.5-2-4.5-4.5s2-4.5,4.5-4.5h78.5c2.5,0,4.5,2,4.5,4.5C97.6,125.4,95.6,127.5,93.1,127.5z"/><path stroke-width="10" fill-opacity="0" stroke="#000000"  d="M93.1,197.5H14.5c-2.5,0-4.5-2-4.5-4.5c0-2.5,2-4.5,4.5-4.5h78.5c2.5,0,4.5,2,4.5,4.5C97.6,195.4,95.6,197.5,93.1,197.5z"/></g></g>
</svg>